#define blossom_cursor_mask_width 13
#define blossom_cursor_mask_height 13
#define blossom_cursor_mask_x_hot 3
#define blossom_cursor_mask_y_hot 3
static unsigned char blossom_cursor_mask_bits[] = {
   0x30, 0x00, 0x78, 0x06, 0xfc, 0x0f, 0xfc, 0x0f, 0xfc, 0x1f, 0xfe, 0x1f,
   0xff, 0x0f, 0xff, 0x0f, 0xff, 0x1f, 0xfe, 0x1f, 0xf8, 0x0f, 0xf8, 0x06,
   0x70, 0x00 };
