#define blossom_cursor_width 13
#define blossom_cursor_height 13
#define blossom_cursor_x_hot 3
#define blossom_cursor_y_hot 3
static unsigned char blossom_cursor_bits[] = {
   0x00, 0x00, 0x20, 0x00, 0x68, 0x06, 0x78, 0x03, 0x70, 0x0f, 0xec, 0x07,
   0xbe, 0x00, 0xfc, 0x07, 0xee, 0x0f, 0x70, 0x03, 0x70, 0x06, 0x50, 0x00,
   0x00, 0x00 };
