#define down1_width 32
#define down1_height 32
static unsigned char down1_bits[] = {
   0x00, 0x00, 0x00, 0x00, 0x00, 0x00, 0x00, 0x00, 0xf0, 0x01, 0x80, 0x07,
   0xf0, 0x07, 0xe0, 0x07, 0xf0, 0x69, 0x90, 0x07, 0xf8, 0xb1, 0x8e, 0x0f,
   0xf4, 0x30, 0x0d, 0x17, 0x14, 0x50, 0x0a, 0x14, 0x14, 0x00, 0x00, 0x14,
   0x22, 0x04, 0x40, 0x22, 0x4e, 0x02, 0x80, 0x39, 0xd0, 0x01, 0x01, 0x05,
   0x20, 0x01, 0x21, 0x03, 0x00, 0x09, 0x23, 0x02, 0x80, 0x8a, 0xbc, 0x02,
   0x80, 0x7a, 0xc0, 0x02, 0x80, 0x27, 0x88, 0x03, 0x40, 0x20, 0x08, 0x04,
   0x80, 0x27, 0xc8, 0x03, 0x00, 0x09, 0x20, 0x01, 0x00, 0x2f, 0xe8, 0x01,
   0x80, 0x30, 0x18, 0x03, 0x40, 0x20, 0x08, 0x06, 0x20, 0x44, 0x05, 0x0e,
   0x20, 0x88, 0xc3, 0x0f, 0x40, 0x0e, 0x40, 0x00, 0x80, 0x0f, 0x20, 0x00,
   0x00, 0x0e, 0x31, 0x00, 0x00, 0x28, 0x2b, 0x00, 0x00, 0xd8, 0x1c, 0x00,
   0x00, 0x70, 0x00, 0x00, 0x00, 0x30, 0x00, 0x00 };
