#define sleep1_width 32
#define sleep1_height 32
static unsigned char sleep1_bits[] = {
   0x00, 0x00, 0x00, 0x00, 0x00, 0x00, 0x00, 0x00, 0x00, 0x00, 0x00, 0x00,
   0x00, 0x00, 0x00, 0x00, 0x00, 0x00, 0x00, 0x00, 0x00, 0x00, 0x00, 0x00,
   0x00, 0x00, 0x00, 0x00, 0x00, 0x00, 0x00, 0x00, 0x00, 0x00, 0x00, 0x00,
   0x00, 0x00, 0x0c, 0x00, 0x00, 0x00, 0xd4, 0x00, 0x00, 0x00, 0xa6, 0x00,
   0x80, 0xff, 0x01, 0xff, 0x80, 0x0f, 0x00, 0xf8, 0x00, 0x07, 0x00, 0x70,
   0x00, 0x83, 0x20, 0x62, 0x00, 0x4d, 0x20, 0x5c, 0x00, 0x72, 0x50, 0x2c,
   0x00, 0x56, 0x8c, 0x17, 0xe0, 0xef, 0x03, 0x28, 0x18, 0x30, 0x03, 0x73,
   0x04, 0x08, 0x84, 0x80, 0xc2, 0xf3, 0x02, 0x70, 0x01, 0xfc, 0x33, 0x20,
   0x01, 0xf8, 0x03, 0x1e, 0x01, 0xf0, 0x87, 0x11, 0x01, 0xf0, 0x7b, 0x08,
   0x01, 0xe0, 0x23, 0x08, 0x02, 0xc0, 0x21, 0x04, 0x04, 0x80, 0x21, 0x02,
   0x78, 0xe0, 0x77, 0x01, 0x80, 0xff, 0xff, 0x00 };
