#define up1_width 32
#define up1_height 32
static unsigned char up1_bits[] = {
   0x00, 0x00, 0x00, 0x00, 0x00, 0x00, 0x00, 0x00, 0xe0, 0x01, 0x80, 0x03,
   0xe0, 0x07, 0xe0, 0x03, 0xe0, 0x09, 0x96, 0x03, 0xf0, 0x71, 0x8d, 0x07,
   0xe8, 0xb0, 0x0c, 0x0b, 0x28, 0x50, 0x0a, 0x0a, 0x28, 0x00, 0x00, 0x0a,
   0x44, 0x02, 0x20, 0x11, 0x9c, 0x01, 0x40, 0x1d, 0xa0, 0x00, 0x80, 0x05,
   0xc0, 0x00, 0x80, 0x02, 0x40, 0x00, 0x80, 0x00, 0x40, 0x01, 0x80, 0x00,
   0x40, 0x01, 0xa0, 0x00, 0xc0, 0x01, 0xe0, 0x01, 0x20, 0x11, 0x22, 0x02,
   0xc0, 0x13, 0xd2, 0x01, 0x80, 0x14, 0x96, 0x00, 0x00, 0x2b, 0xea, 0x00,
   0x80, 0x21, 0x81, 0x00, 0xc0, 0xa0, 0x80, 0x00, 0xe0, 0x44, 0x90, 0x00,
   0xe0, 0x07, 0x50, 0x00, 0x00, 0x04, 0x30, 0x00, 0x00, 0x04, 0x10, 0x00,
   0x00, 0x8e, 0x10, 0x00, 0x00, 0xde, 0x14, 0x00, 0x00, 0x3e, 0x1b, 0x00,
   0x00, 0x1c, 0x0e, 0x00, 0x00, 0x00, 0x0c, 0x00 };
