#define up2_width 32
#define up2_height 32
static unsigned char up2_bits[] = {
   0x00, 0x00, 0x00, 0x00, 0x00, 0x00, 0x00, 0x00, 0xc0, 0x01, 0x80, 0x07,
   0xc0, 0x07, 0xe0, 0x07, 0xc0, 0x69, 0x90, 0x07, 0xe0, 0xb1, 0x8e, 0x0f,
   0xd0, 0x30, 0x0d, 0x17, 0x50, 0x50, 0x0a, 0x14, 0x50, 0x00, 0x00, 0x14,
   0x88, 0x04, 0x40, 0x22, 0xb8, 0x02, 0x80, 0x39, 0xa0, 0x01, 0x00, 0x05,
   0x40, 0x01, 0x00, 0x03, 0x00, 0x01, 0x00, 0x02, 0x00, 0x01, 0x80, 0x02,
   0x00, 0x05, 0x80, 0x02, 0x80, 0x07, 0x80, 0x03, 0x40, 0x44, 0x88, 0x04,
   0x80, 0x4b, 0xc8, 0x03, 0x00, 0x69, 0x28, 0x01, 0x00, 0x57, 0xd4, 0x00,
   0x00, 0x81, 0x84, 0x01, 0x00, 0x01, 0x05, 0x03, 0x00, 0x09, 0x22, 0x07,
   0x00, 0x0a, 0xe0, 0x07, 0x00, 0x0c, 0x20, 0x00, 0x00, 0x08, 0x20, 0x00,
   0x00, 0x08, 0x71, 0x00, 0x00, 0x28, 0x7b, 0x00, 0x00, 0xd8, 0x7c, 0x00,
   0x00, 0x70, 0x38, 0x00, 0x00, 0x30, 0x00, 0x00 };
